<svg xmlns="http://www.w3.org/2000/svg" width="61.214" height="61.214" viewBox="0 0 61.214 61.214">
    <defs>
        <linearGradient id="gradient2" x1="0%" y1="0%" x2="100%" y2="0%">
            <stop offset="0%" style="stop-color:#b6246e" />
            <stop offset="100%" style="stop-color:#f9636b" />
        </linearGradient>
    </defs>
    <g transform="translate(-16.8 -18)" fill="url(#gradient2)">
        <path class="a reward-svg" d="M47.407,18A30.607,30.607,0,1,0,78.014,48.607,30.619,30.619,0,0,0,47.407,18Zm0,59.623A28.922,28.922,0,1,1,76.329,48.7,28.941,28.941,0,0,1,47.407,77.623Z"></path><path class="a reward-svg" d="M47.791,24A24.991,24.991,0,1,0,72.782,48.991,25.046,25.046,0,0,0,47.791,24Zm.842,48.3V68.834H46.949V72.3A23.314,23.314,0,0,1,24.485,49.74h3.276V48.055H24.485a23.35,23.35,0,0,1,22.464-22.37v3.089h1.685V25.685A23.4,23.4,0,0,1,71.1,47.961H67.821v1.685H71.1A23.331,23.331,0,0,1,48.633,72.3Z" transform="translate(-0.384 -0.384)"></path><path class="a reward-svg" d="M61.773,34.076,49.886,47.835a2.655,2.655,0,0,0-1.217-.374,2.068,2.068,0,0,0-1.966,1.31H34.442a.842.842,0,1,0,0,1.685H46.7a2.273,2.273,0,0,0,1.966,1.31,2.118,2.118,0,0,0,2.153-2.153v-.281L62.99,35.106a.882.882,0,0,0-.094-1.217A.788.788,0,0,0,61.773,34.076Z" transform="translate(-1.075 -1.007)"></path>
    </g>
</svg>