<svg class="reward-svg" xmlns="http://www.w3.org/2000/svg" width="63.46" height="64" viewBox="0 0 63.46 64">
  <defs>
    <linearGradient id="gradient3" x1="0%" y1="0%" x2="100%" y2="0%">
      <stop offset="0%" style="stop-color:#b6246e" />
      <stop offset="100%" style="stop-color:#f9636b" />
    </linearGradient>
  </defs>
  <path class="a reward-svg" d="M62.75-44.625l-3.125,7.25a13.179,13.179,0,0,1-4.812,5.438,12.522,12.522,0,0,1-6.937,2.063,17.286,17.286,0,0,1-5.937,8.063A16.538,16.538,0,0,1,32.5-18.375v9.25h2.375a4.55,4.55,0,0,1,3.25,1.313A4.242,4.242,0,0,1,39.5-4.625V-2.25h6.875q1.25,0,1.25,1.125T46.375,0H16.25a.994.994,0,0,1-1.125-1.125A.994.994,0,0,1,16.25-2.25h7V-4.625a4.34,4.34,0,0,1,1.313-3.187A4.34,4.34,0,0,1,27.75-9.125h2.375v-9.25a16.538,16.538,0,0,1-9.437-3.437,17.286,17.286,0,0,1-5.937-8.062q-8-.625-11-7.5L.5-44.625A5.054,5.054,0,0,1,.875-50a5.47,5.47,0,0,1,5-2.625h8v-10.25q0-1.125,1.25-1.125h32.5a.994.994,0,0,1,1.125,1.125v10.25H57.5A5.358,5.358,0,0,1,62.375-50,5.054,5.054,0,0,1,62.75-44.625ZM13.875-35.25V-50.375h-8a3.293,3.293,0,0,0-3,1.625,3.262,3.262,0,0,0-.25,3.25l3.25,7.125A9.822,9.822,0,0,0,14.25-32.25,12.328,12.328,0,0,1,13.875-35.25ZM27.75-6.875a2.094,2.094,0,0,0-1.625.688A2.259,2.259,0,0,0,25.5-4.625V-2.25H37.125V-4.625a2.154,2.154,0,0,0-.687-1.562,2.154,2.154,0,0,0-1.562-.687ZM46.375-61.75H16.25v26.5a14.012,14.012,0,0,0,4.313,10.375,14.473,14.473,0,0,0,10.563,4.25H31.5a14.473,14.473,0,0,0,10.563-4.25A14.012,14.012,0,0,0,46.375-35.25Zm14,13A3.186,3.186,0,0,0,57.5-50.375H48.75V-35.25a26.859,26.859,0,0,1-.25,3.125q6.5-.625,9-6.25L60.625-45.5A2.862,2.862,0,0,0,60.375-48.75ZM31-23.625h-.25a12.826,12.826,0,0,1-7.687-4.562A12.834,12.834,0,0,1,20-36.625v-10.25A.994.994,0,0,1,21.125-48q1.25,0,1.25,1.125v10.25a10.677,10.677,0,0,0,2.5,6.938,10.59,10.59,0,0,0,6.375,3.813,1.019,1.019,0,0,1,.875,1.375A1.079,1.079,0,0,1,31-23.625ZM21.125-52.25A.994.994,0,0,1,20-53.375v-4.5A.994.994,0,0,1,21.125-59q1.25,0,1.25,1.125v4.5Q22.375-52.25,21.125-52.25Z" transform="translate(0.105 64)" fill="url(#gradient3)"></path>
</svg>
