<svg xmlns="http://www.w3.org/2000/svg" width="60" height="48.75" viewBox="0 0 60 48.75"><defs><style>.a{fill:url(#a);}</style><linearGradient id="a" x1="0.5" x2="0.5" y2="1" gradientUnits="objectBoundingBox"><stop offset="0" stop-color="#b6246e"></stop><stop offset="1" stop-color="#f9636b"></stop></linearGradient></defs><path class="a reward-svg" d="M58.594-11.074A5.978,5.978,0,0,0,60-15a5.978,5.978,0,0,0-1.406-3.926,6.243,6.243,0,0,0-3.633-2.168v-.117a5.673,5.673,0,0,0-3.75-5.742V-30A20.438,20.438,0,0,0,45-45a20.438,20.438,0,0,0-15-6.211A20.438,20.438,0,0,0,15-45,20.438,20.438,0,0,0,8.789-30v2.7a4.5,4.5,0,0,0-3.75,4.8v1.406a6.243,6.243,0,0,0-3.633,2.168A5.978,5.978,0,0,0,0-15a5.977,5.977,0,0,0,1.406,3.926A6.243,6.243,0,0,0,5.039-8.906V-7.5A4.863,4.863,0,0,0,6.5-3.926,4.728,4.728,0,0,0,9.961-2.461h2.578A4.728,4.728,0,0,0,16-3.926,4.863,4.863,0,0,0,17.461-7.5v-15A4.863,4.863,0,0,0,16-26.074a4.728,4.728,0,0,0-3.457-1.465H11.25V-30a18.055,18.055,0,0,1,5.508-13.242A18.055,18.055,0,0,1,30-48.75a18.055,18.055,0,0,1,13.242,5.508A18.055,18.055,0,0,1,48.75-30v2.461a5.893,5.893,0,0,0-4.395,1.875,6.182,6.182,0,0,0-1.816,4.453V-8.789a6.182,6.182,0,0,0,1.816,4.453A5.893,5.893,0,0,0,48.75-2.461a5.893,5.893,0,0,0,4.395-1.875,6.182,6.182,0,0,0,1.816-4.453v-.117A6.243,6.243,0,0,0,58.594-11.074Zm-53.555-.41A3.38,3.38,0,0,1,2.461-15a3.38,3.38,0,0,1,2.578-3.516ZM15-22.5v15a2.293,2.293,0,0,1-.762,1.758,2.446,2.446,0,0,1-1.7.7H9.961a2.446,2.446,0,0,1-1.7-.7A2.293,2.293,0,0,1,7.5-7.5v-15a2.293,2.293,0,0,1,.762-1.758,2.446,2.446,0,0,1,1.7-.7h2.578a2.446,2.446,0,0,1,1.7.7A2.293,2.293,0,0,1,15-22.5ZM52.5-8.789a3.7,3.7,0,0,1-1.055,2.637,3.55,3.55,0,0,1-2.7,1.113,3.55,3.55,0,0,1-2.7-1.113A3.7,3.7,0,0,1,45-8.789V-21.211a3.7,3.7,0,0,1,1.055-2.637,3.55,3.55,0,0,1,2.7-1.113,3.55,3.55,0,0,1,2.7,1.113A3.7,3.7,0,0,1,52.5-21.211Zm2.461-2.7v-7.031A3.38,3.38,0,0,1,57.539-15,3.38,3.38,0,0,1,54.961-11.484Z" transform="translate(0 51.211)"></path></svg>