<svg xmlns="http://www.w3.org/2000/svg" width="45.584" height="52.421" viewBox="0 0 45.584 52.421">
    <defs>
        <linearGradient id="gradient2" x1="0%" y1="0%" x2="100%" y2="0%">
            <stop offset="0%" style="stop-color:#b6246e" />
            <stop offset="100%" style="stop-color:#f9636b" />
        </linearGradient>
    </defs>
    <g transform="translate(-748.406 -516.871)" fill="url(#gradient2)">
        <g transform="translate(303 -8)">
            <path class="a reward-svg" d="M2041.792,52.421a2.432,2.432,0,0,1-1.14-.285,66.9,66.9,0,0,1-11.173-9.241,45.1,45.1,0,0,1-7.226-9.529A24.093,24.093,0,0,1,2019,21.794C2019,9.777,2029.224,0,2041.792,0s22.792,9.777,22.792,21.794a24.1,24.1,0,0,1-3.253,11.572,45.117,45.117,0,0,1-7.226,9.529,66.673,66.673,0,0,1-11.173,9.241A2.433,2.433,0,0,1,2041.792,52.421Zm0-50.292c-11.406,0-20.686,8.873-20.686,19.779,0,6.107,3.289,12.729,9.51,19.15a60.362,60.362,0,0,0,10.14,8.387,2.2,2.2,0,0,0,2.069,0,60.474,60.474,0,0,0,10.14-8.387c6.222-6.42,9.51-13.042,9.51-19.15C2062.477,11,2053.2,2.129,2041.792,2.129Z" transform="translate(-1573.593 524.871)"></path><path class="a reward-svg" d="M2030.19,22.381a11.191,11.191,0,0,1-7.913-19.1A11.191,11.191,0,1,1,2038.1,19.1,11.118,11.118,0,0,1,2030.19,22.381Zm0-20.191a9,9,0,1,0,9,9A9.01,9.01,0,0,0,2030.19,2.191Z" transform="translate(-1562.191 534.809)"></path>
        </g>
    </g>
</svg>