<svg xmlns="http://www.w3.org/2000/svg" width="35.402" height="53" viewBox="0 0 35.402 53">
  <defs>
    <linearGradient id="gradient2" x1="0%" y1="0%" x2="100%" y2="0%">
      <stop offset="0%" style="stop-color:#b6246e" />
      <stop offset="100%" style="stop-color:#f9636b" />
    </linearGradient>
  </defs>
  <path class="a reward-svg" d="M34.781-43.373,41.924-53H11.076l7.143,9.627Q8.8-36.955,8.8-28.674q0,4.037,3.571,11.335A111.892,111.892,0,0,0,18.322-6.366Q20.7-2.691,22.256-.518L22.566,0h7.867l.311-.518Q32.3-2.691,34.678-6.366A111.893,111.893,0,0,0,40.63-17.339q3.571-7.3,3.571-11.335Q44.2-36.955,34.781-43.373Zm2.795-7.453L32.607-44.2H20.393l-4.969-6.625ZM29.191-2.174H27.639V-24.326H25.361V-2.174H23.809q-2.07-3-4.4-6.729a103.065,103.065,0,0,1-5.331-10.041q-3-6.314-3-9.73A11.71,11.71,0,0,1,13.2-35.2,18.95,18.95,0,0,1,17.08-39.75q1.76-1.346,3.105-2.174H32.814q1.346.828,3.105,2.174A18.95,18.95,0,0,1,39.8-35.2a11.71,11.71,0,0,1,2.122,6.521q0,3.416-3,9.73A103.065,103.065,0,0,1,33.591-8.9Q31.262-5.176,29.191-2.174Zm1.19-23.757a5.288,5.288,0,0,0,1.6-3.882,5.288,5.288,0,0,0-1.6-3.882A5.288,5.288,0,0,0,26.5-35.3a5.288,5.288,0,0,0-3.882,1.6,5.288,5.288,0,0,0-1.6,3.882,5.288,5.288,0,0,0,1.6,3.882,5.288,5.288,0,0,0,3.882,1.6A5.288,5.288,0,0,0,30.382-25.931Zm-1.5-1.5A3.224,3.224,0,0,1,26.5-26.5a3.224,3.224,0,0,1-2.381-.932,3.224,3.224,0,0,1-.932-2.381,3.224,3.224,0,0,1,.932-2.381,3.224,3.224,0,0,1,2.381-.932,3.224,3.224,0,0,1,2.381.932,3.224,3.224,0,0,1,.932,2.381A3.224,3.224,0,0,1,28.881-27.432Z" transform="translate(-8.799 53)" fill="url(#gradient2)"></path>
</svg>
