<svg xmlns="http://www.w3.org/2000/svg" width="38.97" height="59.846" viewBox="0 0 38.97 59.846">
    <defs>
        <linearGradient id="gradient2" x1="0%" y1="0%" x2="100%" y2="0%">
            <stop offset="0%" style="stop-color:#b6246e" />
            <stop offset="100%" style="stop-color:#f9636b" />
        </linearGradient>
    </defs>
    <g transform="translate(-22 -7)" fill="url(#gradient2)">
        <g transform="translate(22 7)">
            <path class="a reward-svg" d="M26.589,959.362A4.634,4.634,0,0,0,22,963.994v50.6a4.613,4.613,0,0,0,4.588,4.61H56.359a4.63,4.63,0,0,0,4.61-4.61v-50.6a4.651,4.651,0,0,0-4.61-4.632Zm0,1.392H56.359a3.242,3.242,0,0,1,3.218,3.24v6.72H23.392v-6.72a3.231,3.231,0,0,1,3.2-3.24Zm-3.2,11.352H59.578v34.381H23.392V972.106Zm0,35.773H59.578v6.72a3.228,3.228,0,0,1-3.218,3.218H26.588a3.217,3.217,0,0,1-3.2-3.218v-6.72Z" transform="translate(-22 -959.362)"></path>
            <path class="a reward-svg" d="M48.755,1032.17a2.838,2.838,0,1,0,2.849,2.849A2.871,2.871,0,0,0,48.755,1032.17Zm0,1.392a1.446,1.446,0,1,1,0,2.892,1.446,1.446,0,1,1,0-2.892Z" transform="translate(-29.27 -981.504)"></path>
            <path class="a" d="M50.015,1036.17c.027,0,.014,0,.014.058,0,.1.047.057-.057.057-.077,0-.057.024-.057-.057,0-.052,0-.056.057-.056h.043Z" transform="translate(-30.489 -982.72)"></path>
            <path class="a reward-svg" d="M42.7,967.122h9.731a.7.7,0,0,1,.269,1.342h0a.71.71,0,0,1-.268.049H42.7a.695.695,0,0,1-.5-.2h0a.7.7,0,0,1,.5-1.191Z" transform="translate(-28.08 -961.722)"></path>
        </g>
    </g>
</svg>