<svg xmlns="http://www.w3.org/2000/svg" width="58.617" height="58.498" viewBox="0 0 58.617 58.498">
  <defs>
    <linearGradient id="gradient" x1="0%" y1="0%" x2="100%" y2="0%">
      <stop offset="0%" style="stop-color:#b6246e" />
      <stop offset="100%" style="stop-color:#f9636b" />
    </linearGradient>
  </defs>
  <path class="a reward-svg" d="M54.686-52.064V-58.5l-1.072.357q-.715.238-2.5,1.072t-3.336,1.728a21.408,21.408,0,0,0-3.157,2.264,9.718,9.718,0,0,0-2.383,2.859,5.672,5.672,0,0,0-.536,3.4,7.835,7.835,0,0,0,1.906,3.932l-2.979,2.979a22.5,22.5,0,0,0-15.25-5.838A22.118,22.118,0,0,0,9.233-39.078,21.962,21.962,0,0,0,2.5-22.875,22.5,22.5,0,0,0,8.34-7.625l-5.48,5.48a1.075,1.075,0,0,0,0,1.787A1.584,1.584,0,0,0,3.813,0a1.584,1.584,0,0,0,.953-.357l5.361-5.48A22.5,22.5,0,0,0,25.377,0a22.5,22.5,0,0,0,15.25-5.838h.119l5.361,5.48A1.288,1.288,0,0,0,47.061,0a1.143,1.143,0,0,0,.834-.357,1.075,1.075,0,0,0,0-1.787l-5.361-5.48h-.119a21.937,21.937,0,0,0,5.838-15.25,21.937,21.937,0,0,0-5.838-15.25L45.393-41.1a7.386,7.386,0,0,0,4.766,2.025q2.979,0,5.719-3.217a21.146,21.146,0,0,0,3.932-6.553L61-52.064Zm-2.621,0v.715l-2.5,2.5v-4.646a12.227,12.227,0,0,1,1.191-.655l1.311-.655ZM44.2-48.252a8.7,8.7,0,0,1,2.859-3.574v5.6l-1.668,1.549A5.394,5.394,0,0,1,44.2-48.252ZM45.75-22.875A19.7,19.7,0,0,1,39.793-8.519,19.539,19.539,0,0,1,25.377-2.5a19.5,19.5,0,0,1-14.3-5.957A19.637,19.637,0,0,1,5.123-22.875,19.637,19.637,0,0,1,11.08-37.291a19.5,19.5,0,0,1,14.3-5.957A20.1,20.1,0,0,1,38.84-38.125l-3.574,3.574a14.7,14.7,0,0,0-9.889-3.574,14.693,14.693,0,0,0-10.782,4.468,14.693,14.693,0,0,0-4.468,10.782,14.693,14.693,0,0,0,4.468,10.782A14.693,14.693,0,0,0,25.377-7.625a14.693,14.693,0,0,0,10.782-4.468,14.693,14.693,0,0,0,4.468-10.782,15,15,0,0,0-3.574-9.889l3.574-3.574A19.523,19.523,0,0,1,45.75-22.875Zm-15.25,0a4.944,4.944,0,0,1-1.489,3.634,4.944,4.944,0,0,1-3.634,1.489,4.807,4.807,0,0,1-3.515-1.489,4.944,4.944,0,0,1-1.489-3.634,4.944,4.944,0,0,1,1.489-3.634A4.807,4.807,0,0,1,25.377-28,5.931,5.931,0,0,1,28-27.283l-1.906,1.906h-.715a2.487,2.487,0,0,0-1.728.715,2.331,2.331,0,0,0-.774,1.787,2.331,2.331,0,0,0,.774,1.787,2.487,2.487,0,0,0,1.728.715,2.629,2.629,0,0,0,1.847-.715A2.331,2.331,0,0,0,28-22.875a.914.914,0,0,0-.119-.357v-.238L29.785-25.5A5.431,5.431,0,0,1,30.5-22.875Zm-.715-6.2a6.833,6.833,0,0,0-4.408-1.43,7.328,7.328,0,0,0-5.361,2.264,7.328,7.328,0,0,0-2.264,5.361,7.328,7.328,0,0,0,2.264,5.361,7.328,7.328,0,0,0,5.361,2.264A7.27,7.27,0,0,0,30.8-17.514,7.426,7.426,0,0,0,33-22.875a6.833,6.833,0,0,0-1.43-4.408l3.693-3.574a12.154,12.154,0,0,1,2.859,7.982,12.27,12.27,0,0,1-3.753,9,12.27,12.27,0,0,1-9,3.753,12.075,12.075,0,0,1-8.936-3.753,12.37,12.37,0,0,1-3.693-9,12.37,12.37,0,0,1,3.693-9,12.075,12.075,0,0,1,8.936-3.753,12.623,12.623,0,0,1,8.1,2.859ZM50.158-41.58a5.065,5.065,0,0,1-2.979-1.311l6.672-6.672h3.455Q53.732-41.58,50.158-41.58Z" transform="translate(-2.383 58.498)" fill="url(#gradient)"></path>
</svg>
